<mxfile host="app.diagrams.net" agent="Mozilla/5.0 (Windows NT 10.0; Win64; x64) AppleWebKit/537.36 (KHTML, like Gecko) Chrome/135.0.0.0 Safari/537.36" version="26.2.12">
  <diagram name="第 1 页" id="oJtvBOw1WJK3ui5HOgoT">
    <mxGraphModel dx="1044" dy="562" grid="1" gridSize="10" guides="1" tooltips="1" connect="1" arrows="1" fold="1" page="1" pageScale="1" pageWidth="827" pageHeight="1169" math="0" shadow="0">
      <root>
        <mxCell id="0" />
        <mxCell id="1" parent="0" />
        <mxCell id="3-cWyMuHMi9flXLJ4r6o-3" value="" style="edgeStyle=orthogonalEdgeStyle;rounded=0;orthogonalLoop=1;jettySize=auto;html=1;" edge="1" parent="1" source="3-cWyMuHMi9flXLJ4r6o-1" target="3-cWyMuHMi9flXLJ4r6o-2">
          <mxGeometry relative="1" as="geometry" />
        </mxCell>
        <mxCell id="3-cWyMuHMi9flXLJ4r6o-1" value="&lt;font face=&quot;Helvetica&quot; style=&quot;line-height: 100%;&quot;&gt;知识库准备&lt;/font&gt;" style="rounded=0;whiteSpace=wrap;html=1;align=center;" vertex="1" parent="1">
          <mxGeometry x="60" y="20" width="80" height="40" as="geometry" />
        </mxCell>
        <mxCell id="3-cWyMuHMi9flXLJ4r6o-5" value="" style="edgeStyle=orthogonalEdgeStyle;rounded=0;orthogonalLoop=1;jettySize=auto;html=1;" edge="1" parent="1" source="3-cWyMuHMi9flXLJ4r6o-2" target="3-cWyMuHMi9flXLJ4r6o-4">
          <mxGeometry relative="1" as="geometry" />
        </mxCell>
        <mxCell id="3-cWyMuHMi9flXLJ4r6o-2" value="加载知识库文件" style="whiteSpace=wrap;html=1;rounded=0;" vertex="1" parent="1">
          <mxGeometry x="40" y="90" width="120" height="30" as="geometry" />
        </mxCell>
        <mxCell id="3-cWyMuHMi9flXLJ4r6o-7" value="" style="edgeStyle=orthogonalEdgeStyle;rounded=0;orthogonalLoop=1;jettySize=auto;html=1;" edge="1" parent="1" source="3-cWyMuHMi9flXLJ4r6o-4" target="3-cWyMuHMi9flXLJ4r6o-6">
          <mxGeometry relative="1" as="geometry" />
        </mxCell>
        <mxCell id="3-cWyMuHMi9flXLJ4r6o-4" value="文本分割处理" style="whiteSpace=wrap;html=1;rounded=0;" vertex="1" parent="1">
          <mxGeometry x="40" y="150" width="120" height="30" as="geometry" />
        </mxCell>
        <mxCell id="3-cWyMuHMi9flXLJ4r6o-9" value="" style="edgeStyle=orthogonalEdgeStyle;rounded=0;orthogonalLoop=1;jettySize=auto;html=1;" edge="1" parent="1" source="3-cWyMuHMi9flXLJ4r6o-6" target="3-cWyMuHMi9flXLJ4r6o-8">
          <mxGeometry relative="1" as="geometry" />
        </mxCell>
        <mxCell id="3-cWyMuHMi9flXLJ4r6o-6" value="向量化嵌入" style="whiteSpace=wrap;html=1;rounded=0;" vertex="1" parent="1">
          <mxGeometry x="40" y="210" width="120" height="30" as="geometry" />
        </mxCell>
        <mxCell id="3-cWyMuHMi9flXLJ4r6o-11" value="" style="edgeStyle=orthogonalEdgeStyle;rounded=0;orthogonalLoop=1;jettySize=auto;html=1;" edge="1" parent="1" source="3-cWyMuHMi9flXLJ4r6o-8" target="3-cWyMuHMi9flXLJ4r6o-10">
          <mxGeometry relative="1" as="geometry" />
        </mxCell>
        <mxCell id="3-cWyMuHMi9flXLJ4r6o-8" value="构建向量数据库" style="whiteSpace=wrap;html=1;rounded=0;" vertex="1" parent="1">
          <mxGeometry x="40" y="270" width="120" height="30" as="geometry" />
        </mxCell>
        <mxCell id="3-cWyMuHMi9flXLJ4r6o-31" value="" style="edgeStyle=orthogonalEdgeStyle;rounded=0;orthogonalLoop=1;jettySize=auto;html=1;" edge="1" parent="1" source="3-cWyMuHMi9flXLJ4r6o-10" target="3-cWyMuHMi9flXLJ4r6o-30">
          <mxGeometry relative="1" as="geometry" />
        </mxCell>
        <mxCell id="3-cWyMuHMi9flXLJ4r6o-10" value="检索阶段" style="rounded=1;whiteSpace=wrap;html=1;" vertex="1" parent="1">
          <mxGeometry x="130" y="360" width="100" height="30" as="geometry" />
        </mxCell>
        <mxCell id="3-cWyMuHMi9flXLJ4r6o-21" value="" style="edgeStyle=orthogonalEdgeStyle;rounded=0;orthogonalLoop=1;jettySize=auto;html=1;" edge="1" parent="1" source="3-cWyMuHMi9flXLJ4r6o-12" target="3-cWyMuHMi9flXLJ4r6o-20">
          <mxGeometry relative="1" as="geometry" />
        </mxCell>
        <mxCell id="3-cWyMuHMi9flXLJ4r6o-22" value="判断" style="edgeLabel;html=1;align=center;verticalAlign=middle;resizable=0;points=[];" vertex="1" connectable="0" parent="3-cWyMuHMi9flXLJ4r6o-21">
          <mxGeometry x="-0.28" relative="1" as="geometry">
            <mxPoint x="15" y="8" as="offset" />
          </mxGeometry>
        </mxCell>
        <mxCell id="3-cWyMuHMi9flXLJ4r6o-12" value="用户输入" style="rounded=0;whiteSpace=wrap;html=1;" vertex="1" parent="1">
          <mxGeometry x="280" y="80" width="110" height="30" as="geometry" />
        </mxCell>
        <mxCell id="3-cWyMuHMi9flXLJ4r6o-16" value="" style="edgeStyle=orthogonalEdgeStyle;rounded=0;orthogonalLoop=1;jettySize=auto;html=1;" edge="1" parent="1" source="3-cWyMuHMi9flXLJ4r6o-14" target="3-cWyMuHMi9flXLJ4r6o-10">
          <mxGeometry relative="1" as="geometry" />
        </mxCell>
        <mxCell id="3-cWyMuHMi9flXLJ4r6o-14" value="用户输入向量化" style="whiteSpace=wrap;html=1;rounded=0;" vertex="1" parent="1">
          <mxGeometry x="200" y="270" width="110" height="30" as="geometry" />
        </mxCell>
        <mxCell id="3-cWyMuHMi9flXLJ4r6o-25" style="edgeStyle=orthogonalEdgeStyle;rounded=0;orthogonalLoop=1;jettySize=auto;html=1;entryX=0.5;entryY=0;entryDx=0;entryDy=0;" edge="1" parent="1" source="3-cWyMuHMi9flXLJ4r6o-20" target="3-cWyMuHMi9flXLJ4r6o-14">
          <mxGeometry relative="1" as="geometry">
            <mxPoint x="250" y="240" as="targetPoint" />
            <Array as="points">
              <mxPoint x="255" y="205" />
            </Array>
          </mxGeometry>
        </mxCell>
        <mxCell id="3-cWyMuHMi9flXLJ4r6o-28" value="是" style="edgeLabel;html=1;align=center;verticalAlign=middle;resizable=0;points=[];" vertex="1" connectable="0" parent="3-cWyMuHMi9flXLJ4r6o-25">
          <mxGeometry x="0.185" y="-2" relative="1" as="geometry">
            <mxPoint x="-13" y="3" as="offset" />
          </mxGeometry>
        </mxCell>
        <mxCell id="3-cWyMuHMi9flXLJ4r6o-27" style="edgeStyle=orthogonalEdgeStyle;rounded=0;orthogonalLoop=1;jettySize=auto;html=1;entryX=0.5;entryY=0;entryDx=0;entryDy=0;" edge="1" parent="1" source="3-cWyMuHMi9flXLJ4r6o-20" target="3-cWyMuHMi9flXLJ4r6o-26">
          <mxGeometry relative="1" as="geometry">
            <Array as="points">
              <mxPoint x="414" y="205" />
            </Array>
          </mxGeometry>
        </mxCell>
        <mxCell id="3-cWyMuHMi9flXLJ4r6o-29" value="否" style="edgeLabel;html=1;align=center;verticalAlign=middle;resizable=0;points=[];" vertex="1" connectable="0" parent="3-cWyMuHMi9flXLJ4r6o-27">
          <mxGeometry x="0.2253" y="-2" relative="1" as="geometry">
            <mxPoint x="18" y="1" as="offset" />
          </mxGeometry>
        </mxCell>
        <mxCell id="3-cWyMuHMi9flXLJ4r6o-20" value="是否健康相关的问题" style="rhombus;whiteSpace=wrap;html=1;" vertex="1" parent="1">
          <mxGeometry x="270" y="170" width="130" height="70" as="geometry" />
        </mxCell>
        <mxCell id="3-cWyMuHMi9flXLJ4r6o-26" value="直接回答" style="whiteSpace=wrap;html=1;rounded=0;" vertex="1" parent="1">
          <mxGeometry x="359" y="270" width="110" height="30" as="geometry" />
        </mxCell>
        <mxCell id="3-cWyMuHMi9flXLJ4r6o-33" value="" style="edgeStyle=orthogonalEdgeStyle;rounded=0;orthogonalLoop=1;jettySize=auto;html=1;" edge="1" parent="1" source="3-cWyMuHMi9flXLJ4r6o-30" target="3-cWyMuHMi9flXLJ4r6o-32">
          <mxGeometry relative="1" as="geometry" />
        </mxCell>
        <mxCell id="3-cWyMuHMi9flXLJ4r6o-30" value="相似度召回" style="whiteSpace=wrap;html=1;rounded=0;" vertex="1" parent="1">
          <mxGeometry x="120" y="420" width="120" height="30" as="geometry" />
        </mxCell>
        <mxCell id="3-cWyMuHMi9flXLJ4r6o-32" value="构造上下文prompt" style="whiteSpace=wrap;html=1;rounded=0;" vertex="1" parent="1">
          <mxGeometry x="120" y="480" width="120" height="30" as="geometry" />
        </mxCell>
      </root>
    </mxGraphModel>
  </diagram>
</mxfile>
